<svg width="165" height="55" viewBox="0 0 165 55" fill="none" xmlns="http://www.w3.org/2000/svg">
<path fill-rule="evenodd" clip-rule="evenodd" d="M135.725 37.7348L131.103 32.6991L134.167 27.4173C134.44 26.9503 134.194 26.6469 133.755 26.6469H131.103C130.666 26.6469 130.42 26.7845 130.201 27.1418L128.478 30.169L125.414 26.8399C127.494 25.6835 129.463 24.1428 129.463 21.3926C129.463 18.1739 127.22 16 123.556 16C119.973 16 117.594 18.3379 117.594 21.7503C117.594 23.0977 118.169 24.6384 119.426 26.0966C116.856 27.5277 115.16 29.2328 115.16 32.4251C115.16 36.5792 118.305 39 122.298 39C125.524 39 127.467 37.5972 128.861 35.7263L130.939 38.0367C131.24 38.3947 131.487 38.5048 131.951 38.5048H135.424C135.862 38.5048 136.081 38.12 135.725 37.7348ZM105.672 38.5048C105.317 38.5048 105.071 38.2571 105.071 37.8991V20.1541H99.0821C98.7258 20.1541 98.4801 19.9065 98.4801 19.5485V17.1009C98.4801 16.7425 98.7258 16.4952 99.0821 16.4952H115.025C115.381 16.4952 115.627 16.7425 115.627 17.1009V19.5485C115.627 19.9065 115.381 20.1541 115.025 20.1541H109.036V37.8991C109.036 38.2571 108.79 38.5048 108.434 38.5048H105.672ZM122.38 35.5333C120.574 35.5333 119.043 34.1859 119.043 32.2875C119.043 30.3608 120.137 29.3982 121.833 28.4349L126.263 33.223C125.306 34.6808 124.129 35.5333 122.38 35.5333ZM125.743 21.4752C125.743 20.3463 125.033 19.4109 123.611 19.4109C122.189 19.4109 121.369 20.3192 121.369 21.5294C121.369 22.4653 121.86 23.2907 122.982 24.5009C124.923 23.3732 125.743 22.6857 125.743 21.4752ZM91.0198 20.5672L87.847 29.6462H94.1644L91.0198 20.5672ZM101.138 37.789L93.7272 17.0451C93.5901 16.6599 93.317 16.4952 92.9072 16.4952H89.2418C88.8323 16.4952 88.5862 16.6599 88.4498 17.0451L81.0385 37.789C80.9014 38.1471 81.1479 38.5048 81.503 38.5048H84.1831C84.5934 38.5048 84.8391 38.3125 84.9759 37.9266L86.5902 33.2505H95.4224L97.0363 37.9266C97.1727 38.3125 97.4192 38.5048 97.8294 38.5048H100.674C101.056 38.5048 101.275 38.1471 101.138 37.789ZM143.41 37.8991C143.41 38.2571 143.163 38.5048 142.808 38.5048H140.046C139.691 38.5048 139.445 38.2571 139.445 37.8991V20.1541H133.455C133.099 20.1541 132.854 19.9065 132.854 19.5485V17.1009C132.854 16.7425 133.099 16.4952 133.455 16.4952H149.399C149.754 16.4952 150 16.7425 150 17.1009V19.5485C150 19.9065 149.754 20.1541 149.399 20.1541H143.41V37.8991Z" fill="#2D3B40"/>
<path fill-rule="evenodd" clip-rule="evenodd" d="M42.5 0C47.6601 0 52.4451 1.40517 56.567 3.87712C57.6769 4.54017 58.2247 4.97979 58.2247 5.60656C58.2247 8.23701 50.8451 10.9683 41.3324 10.9683C31.7192 10.9683 26.2998 8.47497 26.2998 6.15427C26.2998 5.36899 26.9988 4.75635 28.2382 3.99247C32.375 1.45559 37.304 0 42.5 0ZM60.6603 6.93267C60.7757 7.11295 60.8333 7.30736 60.8333 7.5667C60.8333 10.6223 51.4864 16.0272 36.6051 16.0272C25.6731 16.0272 23.6262 11.9701 23.6262 9.3901C23.6262 8.46771 23.9791 7.52354 24.7575 6.56524C24.8007 6.50757 24.7648 6.4858 24.7144 6.52896C23.2947 7.73247 21.9903 9.08722 20.8445 10.5505C20.2968 11.2422 19.958 11.8548 19.958 12.2222C19.958 17.5698 33.3624 21.4466 45.8943 21.4466C59.2479 21.4466 65.2077 17.0867 65.2077 13.2527C65.2077 11.8834 64.6745 11.0836 63.3125 9.5341C62.426 8.52538 61.59 7.70382 60.7035 6.89677C60.6603 6.86049 60.6317 6.88951 60.6603 6.93267ZM15.6844 21.4034C15.951 20.0051 16.8448 17.3028 17.6518 15.7029C17.6736 15.6597 17.7168 15.667 17.7023 15.7174C17.5655 16.2651 17.4574 16.791 17.4574 17.3174C17.4574 22.7944 26.5374 27.1326 37.4194 27.1326C47.4653 27.1326 67.3768 22.5275 67.1392 15.3859C67.1316 15.3355 67.1679 15.3282 67.1897 15.3714C67.8309 16.6757 68.5876 18.535 68.9909 20.1277C69.3515 21.5547 69.3369 22.6138 69.0558 23.6156C67.5281 29.0637 58.0948 32.0474 45.952 32.0474C26.0474 32.0474 17.5151 26.3183 15.8288 22.7364C15.6195 22.2899 15.5695 22.0015 15.6844 21.4034ZM36.9725 38.526C22.8982 38.526 16.2612 31.968 15.0577 27.4927C15.0432 27.4278 15 27.4423 15 27.5C15 29.006 15.1513 30.952 15.4106 32.2418C15.5332 32.8686 16.045 33.8559 16.7944 34.6416C20.2032 38.1944 28.6996 43.1742 43.4151 43.1742C63.4638 43.1742 68.0471 36.4936 68.984 34.2959C69.654 32.7246 70 29.8852 70 27.5C70 26.9233 69.9855 26.4623 69.9637 26.0081C69.9637 25.9363 69.9209 25.9291 69.9064 26.0012C68.9046 31.3771 51.7748 38.526 36.9725 38.526ZM63.0169 45.1271C58.5703 48.7812 51.1335 50.6256 44.3666 50.6256C31.5099 50.6256 21.1039 46.6404 17.6736 39.3475C17.6518 39.2899 17.6881 39.2685 17.724 39.3185C21.4064 44.6589 30.811 47.4547 39.5525 47.4547C51.9191 47.4547 63.8961 43.6566 68.0326 37.5677C68.0758 37.5027 68.1117 37.5318 68.0903 37.5891C67.6148 38.7857 67.0308 40.0033 66.4326 41.0266C65.3949 42.8068 64.2349 44.1329 63.0169 45.1271ZM42.5 55C36.1509 55 30.2995 52.8309 25.6368 49.22C25.5936 49.1845 25.615 49.1414 25.6731 49.17C28.6923 50.8563 34.0395 52.7442 42.5 52.7442C52.2361 52.7442 58.4191 49.5806 60.5881 48.1323C60.6458 48.0964 60.6748 48.1323 60.6172 48.1827C55.7817 52.42 49.4472 55 42.5 55Z" fill="#2D3B40"/>
</svg>
